<?xml version="1.0" encoding="utf-8"?>
<!DOCTYPE svg PUBLIC "-//W3C//DTD SVG 1.1//EN" "http://www.w3.org/Graphics/SVG/1.1/DTD/svg11.dtd">
<svg xmlns="http://www.w3.org/2000/svg" viewBox="0 0 32 16" fill="#D71920">
<path d="M3 1H7.625V15H6V2.625H3V1Z"/>
<path d="M1 4H4.625V15H3V5.625H1V4Z"/>
<path d="M16 13.375H30V15H16C14.6155 15 13.2622 14.5895 12.111 13.8203C10.9599 13.0511 10.0627 11.9579 9.53284 10.6788C9.00303 9.3997 8.86441 7.99223 9.1345 6.63437C9.4046 5.2765 10.0713 4.02922 11.0503 3.05025C12.0292 2.07129 13.2765 1.4046 14.6344 1.1345C15.9922 0.864406 17.3997 1.00303 18.6788 1.53284C19.9579 2.06266 21.0511 2.95986 21.8203 4.11101C22.5895 5.26215 23 6.61553 23 8H21.376C21.376 6.93673 21.0607 5.89733 20.47 5.01325C19.8793 4.12918 19.0396 3.44012 18.0573 3.03322C17.075 2.62633 15.994 2.51986 14.9512 2.7273C13.9084 2.93473 12.9504 3.44675 12.1986 4.19859C11.4467 4.95044 10.9347 5.90835 10.7273 6.95119C10.5199 7.99404 10.6263 9.07497 11.0332 10.0573C11.4401 11.0396 12.1292 11.8793 13.0133 12.47C13.8973 13.0607 14.9367 13.375 16 13.375Z"/>
<path d="M16 10.375H30V12H16C15.2089 12 14.4355 11.7654 13.7777 11.3259C13.1199 10.8864 12.6072 10.2616 12.3045 9.53073C12.0017 8.79983 11.9225 7.99556 12.0769 7.21964C12.2312 6.44371 12.6122 5.73098 13.1716 5.17157C13.731 4.61216 14.4437 4.2312 15.2196 4.07686C15.9956 3.92252 16.7998 4.00173 17.5307 4.30448C18.2616 4.60723 18.8864 5.11992 19.3259 5.77772C19.7654 6.43552 20 7.20887 20 8H18.376C18.376 7.53007 18.2366 7.0707 17.9756 6.67997C17.7145 6.28923 17.3434 5.9847 16.9093 5.80486C16.4751 5.62503 15.9974 5.57798 15.5365 5.66965C15.0756 5.76133 14.6522 5.98762 14.3199 6.31991C13.9876 6.6522 13.7613 7.07557 13.6697 7.53647C13.578 7.99736 13.625 8.4751 13.8049 8.90926C13.9847 9.34341 14.2892 9.71449 14.68 9.97557C15.0707 10.2366 15.5301 10.375 16 10.375Z"/>
 </svg>
